#!OML:ASF H:\Dans Jumps\Project 1\Capture day 1\Session 1\subject.ASF
:FULLY-SPECIFIED
:DEGREES
660
root 0.325887 17.7473 6.51722 7.4201 -1.60702 -1.40513
lowerback -3.8846 0.368308 -0.0643124
upperback 1.45643 0.452788 1.20181
thorax 3.66833 0.209033 1.30599
lowerneck -10.155 -0.313826 -2.19656
upperneck 15.0324 -0.194047 0.825841
head 6.23677 -0.152407 0.608007
rclavicle -4.69629e-015 -1.39149e-015
rhumerus -28.0625 -14.7521 -80.0204
rradius 26.5698
rwrist 31.6209
rhand -19.6502 -26.2232
rfingers 7.12502
rthumb 6.67751 -56.0979
lclavicle -4.69629e-015 -1.39149e-015
lhumerus -27.1615 0.973762 86.7842
lradius 21.6392
lwrist 7.62749
lhand -25.7819 -5.47259
lfingers 7.12502
lthumb 0.756381 24.5058
rfemur -13.1806 -2.95861 20.3847
rtibia 19.4932
rfoot -12.4447 3.23005
rtoes 18.3031
lfemur -10.4571 6.07472 -17.4936
ltibia 15.823
lfoot -8.19545 8.85637
ltoes 2.82933
661
root 0.326737 17.7474 6.51467 7.41551 -1.59554 -1.40314
lowerback -3.88712 0.36214 -0.055518
upperback 1.45273 0.443996 1.20492
thorax 3.66616 0.204846 1.30363
lowerneck -10.1319 -0.319867 -2.21434
upperneck 14.9679 -0.201 0.833228
head 6.21249 -0.155903 0.612562
rclavicle 4.47266e-016 1.0138e-014
rhumerus -28.0514 -14.7188 -80.0183
rradius 26.5862
rwrist 31.5933
rhand -19.6695 -26.2192
rfingers 7.12502
rthumb 6.65887 -56.0945
lclavicle 4.47266e-016 1.0138e-014
lhumerus -27.1176 1.05439 86.7083
lradius 21.6371
lwrist 7.59253
lhand -25.7976 -5.44858
lfingers 7.12502
lthumb 0.741246 24.5299
rfemur -13.1865 -2.95926 20.3807
rtibia 19.4992
rfoot -12.44 3.21429
rtoes 18.2925
lfemur -10.464 6.08873 -17.4993
ltibia 15.8218
lfoot -8.18922 8.83205
ltoes 2.80223
662
root 0.327575 17.7474 6.51219 7.40935 -1.58176 -1.39982
lowerback -3.88884 0.354992 -0.0491831
upperback 1.44905 0.43403 1.2081
thorax 3.66359 0.200017 1.30265
lowerneck -10.1217 -0.322195 -2.22614
upperneck 14.9156 -0.203268 0.838515
head 6.19421 -0.156999 0.615881
rclavicle 6.26172e-015 8.15017e-015
rhumerus -28.04 -14.6868 -80.0166
rradius 26.6013
rwrist 31.5702
rhand -19.6885 -26.214
rfingers 7.12502
rthumb 6.64052 -56.0899
lclavicle 6.26172e-015 8.15017e-015
lhumerus -27.0737 1.12222 86.6407
lradius 21.628
lwrist 7.57193
lhand -25.8183 -5.4431
lfingers 7.12502
lthumb 0.721269 24.5354
rfemur -13.189 -2.96049 20.3753
rtibia 19.5031
rfoot -12.4352 3.19655
rtoes 18.2757
lfemur -10.4711 6.10158 -17.5059
ltibia 15.8241
lfoot -8.19555 8.80523
ltoes 2.83418
663
root 0.328417 17.7474 6.50987 7.40008 -1.56584 -1.39483
lowerback -3.88739 0.346775 -0.0460301
upperback 1.44357 0.422838 1.21155
thorax 3.65736 0.194521 1.3036
lowerneck -10.1268 -0.319638 -2.23263
upperneck 14.8809 -0.199446 0.843973
head 6.18405 -0.154899 0.618919
rclavicle 9.16894e-015 8.94531e-015
rhumerus -28.0337 -14.6522 -80.0146
rradius 26.6157
rwrist 31.5489
rhand -19.7021 -26.2095
rfingers 7.12502
rthumb 6.62738 -56.0858
lclavicle 9.16894e-015 8.94531e-015
lhumerus -27.0334 1.17805 86.5812
lradius 21.6113
lwrist 7.56313
lhand -25.8425 -5.47201
lfingers 7.12502
lthumb 0.697835 24.5066
rfemur -13.1863 -2.96168 20.3677
rtibia 19.5054
rfoot -12.431 3.17746
rtoes 18.2526
lfemur -10.4746 6.1139 -17.5137
ltibia 15.8278
lfoot -8.20747 8.77524
ltoes 2.89431
664
root 0.32935 17.7474 6.5077 7.38878 -1.54729 -1.38945
lowerback -3.88199 0.337762 -0.0435173
upperback 1.43478 0.41066 1.21549
thorax 3.64548 0.188545 1.30529
lowerneck -10.1422 -0.314042 -2.22888
upperneck 14.8614 -0.191635 0.841223
head 6.18041 -0.151002 0.618027
rclavicle -6.11263e-015 -5.36719e-015
rhumerus -28.0316 -14.6187 -80.0102
rradius 26.6247
rwrist 31.5328
rhand -19.717 -26.1972
rfingers 7.12502
rthumb 6.61301 -56.074
lclavicle -6.11263e-015 -5.36719e-015
lhumerus -26.997 1.22175 86.5302
lradius 21.5853
lwrist 7.56109
lhand -25.871 -5.52818
lfingers 7.12502
lthumb 0.670293 24.4505
rfemur -13.1798 -2.96628 20.3592
rtibia 19.5067
rfoot -12.428 3.16016
rtoes 18.2255
lfemur -10.4752 6.12345 -17.5217
ltibia 15.8312
lfoot -8.21865 8.7445
ltoes 2.95184
665
root 0.330391 17.7473 6.50574 7.37427 -1.52672 -1.38237
lowerback -3.87426 0.328511 -0.0422127
upperback 1.42523 0.398282 1.21863
thorax 3.6315 0.182462 1.3068
lowerneck -10.1543 -0.30854 -2.2283
upperneck 14.8449 -0.1843 0.843386
head 6.17714 -0.147146 0.619186
rclavicle 2.23633e-016 2.98177e-015
rhumerus -28.0327 -14.585 -80.0062
rradius 26.6327
rwrist 31.5168
rhand -19.7255 -26.1921
rfingers 7.12502
rthumb 6.60484 -56.0691
lclavicle 2.23633e-016 2.98177e-015
lhumerus -26.961 1.25418 86.4865
lradius 21.5533
lwrist 7.56277
lhand -25.9005 -5.58514
lfingers 7.12502
lthumb 0.641844 24.3936
rfemur -13.1684 -2.97461 20.3482
rtibia 19.5076
rfoot -12.4269 3.14508
rtoes 18.1932
lfemur -10.4705 6.13096 -17.5312
ltibia 15.8329
lfoot -8.23371 8.71267
ltoes 3.02427
666
root 0.331508 17.7473 6.50384 7.35668 -1.50447 -1.37692
lowerback -3.86236 0.31949 -0.0390749
upperback 1.4148 0.38614 1.22206
thorax 3.61427 0.17655 1.30756
lowerneck -10.1598 -0.305123 -2.23451
upperneck 14.8294 -0.180048 0.853105
head 6.17312 -0.144581 0.623608
rclavicle 1.59028e-015 -1.15295e-014
rhumerus -28.0373 -14.5534 -80.0017
rradius 26.6403
rwrist 31.5052
rhand -19.7331 -26.1891
rfingers 7.12502
rthumb 6.59748 -56.0663
lclavicle 1.59028e-015 -1.15295e-014
lhumerus -26.9262 1.28399 86.4475
lradius 21.5206
lwrist 7.56146
lhand -25.9457 -5.66554
lfingers 7.12502
lthumb 0.598225 24.3134
rfemur -13.1521 -2.9821 20.3385
rtibia 19.5071
rfoot -12.4267 3.12762
rtoes 18.161
lfemur -10.4619 6.1372 -17.5385
ltibia 15.834
lfoot -8.25165 8.68118
ltoes 3.10804
667
root 0.332734 17.7473 6.50205 7.33909 -1.48129 -1.371
lowerback -3.85113 0.310747 -0.0347406
upperback 1.40372 0.374359 1.22412
thorax 3.59676 0.170863 1.30626
lowerneck -10.1526 -0.304329 -2.24706
upperneck 14.8083 -0.179679 0.869488
head 6.16519 -0.143718 0.630855
rclavicle 2.68359e-015 1.39149e-015
rhumerus -28.0422 -14.5249 -79.9988
rradius 26.6462
rwrist 31.498
rhand -19.7386 -26.1881
rfingers 7.12502
rthumb 6.5922 -56.0655
lclavicle 2.68359e-015 1.39149e-015
lhumerus -26.8945 1.3095 86.4126
lradius 21.4895
lwrist 7.55061
lhand -25.9825 -5.72865
lfingers 7.12502
lthumb 0.562599 24.2504
rfemur -13.1345 -2.98953 20.328
rtibia 19.5047
rfoot -12.4254 3.10807
rtoes 18.1278
lfemur -10.4534 6.14342 -17.5468
ltibia 15.8352
lfoot -8.27489 8.64928
ltoes 3.19947
668
root 0.333997 17.7473 6.50033 7.32198 -1.458 -1.37049
lowerback -3.84227 0.303434 -0.0244782
upperback 1.39393 0.364123 1.22681
thorax 3.58191 0.166057 1.30243
lowerneck -10.1419 -0.305728 -2.25891
upperneck 14.785 -0.182301 0.884698
head 6.15602 -0.14435 0.63736
rclavicle 4.52235e-015 4.77083e-015
rhumerus -28.044 -14.5022 -79.9966
rradius 26.6502
rwrist 31.4969
rhand -19.7444 -26.1927
rfingers 7.12502
rthumb 6.58658 -56.0703
lclavicle 4.52235e-015 4.77083e-015
lhumerus -26.8641 1.32683 86.3839
lradius 21.4639
lwrist 7.53008
lhand -26.0092 -5.77067
lfingers 7.12502
lthumb 0.536845 24.2084
rfemur -13.1165 -2.9949 20.3233
rtibia 19.5004
rfoot -12.4234 3.08637
rtoes 18.0943
lfemur -10.4456 6.15143 -17.5494
ltibia 15.837
lfoot -8.29764 8.61657
ltoes 3.28038
669
root 0.335255 17.7473 6.49872 7.30554 -1.4363 -1.37468
lowerback -3.83431 0.297422 -0.00920638
upperback 1.3845 0.355359 1.22937
thorax 3.56793 0.162091 1.29576
lowerneck -10.1487 -0.304693 -2.26003
upperneck 14.7748 -0.182204 0.895068
head 6.15398 -0.143488 0.640821
rclavicle 1.14301e-015 -1.05356e-014
rhumerus -28.0416 -14.4863 -79.9965
rradius 26.6498
rwrist 31.5027
rhand -19.7477 -26.1969
rfingers 7.12502
rthumb 6.58336 -56.0746
lclavicle 1.14301e-015 -1.05356e-014
lhumerus -26.837 1.33901 86.359
lradius 21.4427
lwrist 7.49682
lhand -26.0175 -5.78814
lfingers 7.12502
lthumb 0.52888 24.1909
rfemur -13.0988 -2.99591 20.3239
rtibia 19.495
rfoot -12.4195 3.0618
rtoes 18.0638
lfemur -10.4381 6.16052 -17.5471
ltibia 15.8388
lfoot -8.32373 8.5864
ltoes 3.37328
670
root 0.336483 17.7473 6.49719 7.29124 -1.41761 -1.37752
lowerback -3.82952 0.29244 0.00392513
upperback 1.37587 0.348098 1.23073
thorax 3.55654 0.158824 1.2892
lowerneck -10.1669 -0.302262 -2.2486
upperneck 14.7702 -0.180461 0.895684
head 6.1556 -0.141905 0.639268
rclavicle 7.45443e-017 -6.55989e-015
rhumerus -28.0339 -14.4744 -79.9985
rradius 26.6444
rwrist 31.5124
rhand -19.7517 -26.1974
rfingers 7.12502
rthumb 6.57954 -56.0752
lclavicle 7.45443e-017 -6.55989e-015
lhumerus -26.8119 1.34539 86.3392
lradius 21.426
lwrist 7.45348
lhand -26.0107 -5.78371
lfingers 7.12502
lthumb 0.535372 24.1954
rfemur -13.083 -2.99292 20.3228
rtibia 19.4883
rfoot -12.4136 3.03632
rtoes 18.0413
lfemur -10.4334 6.16784 -17.5465
ltibia 15.8415
lfoot -8.34231 8.56032
ltoes 3.44396
